<?xml version="1.0" encoding="UTF-8" standalone="no"?>
<svg
   version="1.1"
   width="2543"
   height="1488"
   id="svg1"
   sodipodi:docname="Mesa de trabajo 1.svg"
   inkscape:version="1.3.2 (091e20e, 2023-11-25, custom)"
   xmlns:inkscape="http://www.inkscape.org/namespaces/inkscape"
   xmlns:sodipodi="http://sodipodi.sourceforge.net/DTD/sodipodi-0.dtd"
   xmlns="http://www.w3.org/2000/svg"
   xmlns:svg="http://www.w3.org/2000/svg">
  <defs
     id="defs1" />
  <sodipodi:namedview
     id="namedview1"
     pagecolor="#ffffff"
     bordercolor="#000000"
     borderopacity="0.25"
     inkscape:showpageshadow="2"
     inkscape:pageopacity="0.0"
     inkscape:pagecheckerboard="0"
     inkscape:deskcolor="#d1d1d1"
     inkscape:zoom="0.18889445"
     inkscape:cx="862.91577"
     inkscape:cy="1659.657"
     inkscape:window-width="1920"
     inkscape:window-height="1000"
     inkscape:window-x="-9"
     inkscape:window-y="-9"
     inkscape:window-maximized="1"
     inkscape:current-layer="svg1" />
  <path
     d="m 2420,0 c -95.7415,185.46143 -205.0192,373.64744 -298,555 38.9165,16.11384 80.9725,33.76882 116.7518,51.27817 45.6268,23.06472 87.5947,48.23039 131.2482,78.72183 90.2525,66.86503 183.5591,171.18092 173.3455,297.49411 -6.6987,127.08729 -109.1449,221.21379 -198.4002,283.48249 -39.2601,23.9352 -72.1954,44.9961 -114.6615,64.4524 -41.0756,21.4822 -89.9414,40.5554 -134.3893,56.7194 -47.0705,16.4792 -97.3106,32.2996 -146,44.2188 -79.2049,20.8217 -158.7628,34.2067 -239.8945,46.6328 -28.2939,2.2335 -58.9542,9.561 -95.1192,9.9883 -152.4574,1.8011 -333.6835,2.1564 -490.03,-0.1639 C 2046.7595,792.20134 1581.9169,563.26322 800.0117,1185.2385 696.8552,1278.2843 600.0283,1378.4847 512,1486.0002 c -170.3255,0.5591 -340.6682,-0.077 -511,0.01 132.9186,-83.7982 267.3556,-166.0845 402,-247 C 317.0315,1170.6697 230.3453,1069.0553 242.8773,946.53332 249.983,845.45735 319.6266,762.83692 393,703 432.8342,671.02291 471.1281,649.01925 510.5195,625.09375 552.0644,603.76846 600.3463,580.80005 646,562 c 56.4509,-20.4979 115.2021,-40.69012 177,-57 78.9314,-20.10173 160.2553,-36.46748 246.5989,-48.3335 150.3282,-19.71947 310.2119,-25.87282 464.4011,-15.6669 54.0081,-6.16077 109.9915,19.68245 161.9216,3.25112 C 1936.8849,295.6751 2177.8955,146.23776 2420,0 Z M 1392,537 c -129.3541,0.0523 -259.7318,14.65267 -379.3516,38.68354 -56.835,12.93676 -114.2177,25.88864 -167.3359,44.42969 -58.3042,16.44973 -106.1831,39.2937 -157.3125,60.88672 -28.7586,16.94101 -67.0303,34.1312 -94,55 C 537.2042,770.73784 478.4988,821.59733 437.1077,890.33813 380.8667,982.35267 402.8531,1114.8156 480,1188.9999 617.9498,1110.14 759.8718,1018.025 899.3403,933.93935 1112.3039,802.52297 1327.503,672.2649 1539,539.99995 1490.1155,538.5316 1440.4453,534.57349 1392,537 Z m 676,113 c -149.1562,274.85007 -299.5821,549.4718 -447,825 73.6548,-5.5134 134.1456,-18.036 205,-30.0005 50.8081,-12.5263 110.2234,-25.0776 160.75,-43.4375 45.7384,-14.6093 96.4635,-33.0531 140.25,-55.5625 40.8794,-17.0966 78.0855,-38.9191 111.1367,-60.7812 42.7608,-27.0213 77.8769,-58.052 113.5078,-96.4493 64.2778,-70.0629 99.6827,-189.05786 49.086,-278.78853 C 2367.2882,836.26355 2308.4745,787.78746 2252,745 c -37.4914,-22.67328 -75.8754,-48.71939 -117,-65 -18.5405,-11.61164 -44.1064,-21.29657 -67,-30 z"
     fill="#FFFFFF"
     id="path1"
     style="fill:#ffffff"
     sodipodi:nodetypes="ccccccccccsscccccccccccccccccccccccccccccccccc" />
</svg>
